<svg width="48" height="48" viewBox="0 0 48 48" fill="none" xmlns="http://www.w3.org/2000/svg">
<path d="M0 24C0 10.7452 10.7452 0 24 0C37.2548 0 48 10.7452 48 24C48 37.2548 37.2548 48 24 48C10.7452 48 0 37.2548 0 24Z" fill="#7289DA"/>
<path d="M33.1636 16.4921C31.5701 15.8015 29.8614 15.2927 28.0749 15.0012C28.0424 14.9956 28.0098 15.0097 27.9931 15.0378C27.7733 15.407 27.5299 15.8886 27.3595 16.2672C25.4379 15.9955 23.5262 15.9955 21.6441 16.2672C21.4736 15.8802 21.2213 15.407 21.0006 15.0378C20.9839 15.0106 20.9513 14.9965 20.9188 15.0012C19.1332 15.2917 17.4245 15.8005 15.8301 16.4921C15.8163 16.4977 15.8045 16.5071 15.7966 16.5193C12.5556 21.0931 11.6678 25.5545 12.1033 29.9606C12.1053 29.9822 12.1181 30.0028 12.1358 30.0159C14.2742 31.4993 16.3455 32.3998 18.3784 32.9967C18.4109 33.0061 18.4454 32.9949 18.4661 32.9695C18.947 32.3492 19.3757 31.6951 19.7432 31.0073C19.7649 30.967 19.7442 30.9192 19.6999 30.9033C19.0199 30.6597 18.3725 30.3626 17.7497 30.0253C17.7005 29.9981 17.6965 29.9316 17.7418 29.8997C17.8729 29.8069 18.004 29.7104 18.1291 29.613C18.1518 29.5952 18.1833 29.5914 18.2099 29.6027C22.3013 31.3672 26.7308 31.3672 30.7739 29.6027C30.8005 29.5905 30.8321 29.5942 30.8557 29.612C30.9809 29.7095 31.1119 29.8069 31.244 29.8997C31.2893 29.9316 31.2863 29.9981 31.2371 30.0253C30.6143 30.3692 29.9669 30.6597 29.286 30.9024C29.2416 30.9183 29.2219 30.967 29.2436 31.0073C29.619 31.6942 30.0477 32.3483 30.5197 32.9686C30.5394 32.9949 30.5749 33.0061 30.6074 32.9967C32.6502 32.3998 34.7215 31.4993 36.8598 30.0159C36.8786 30.0028 36.8904 29.9831 36.8924 29.9616C37.4136 24.8676 36.0193 20.4428 33.1961 16.5202C33.1892 16.5071 33.1773 16.4977 33.1636 16.4921ZM20.3542 27.2778C19.1224 27.2778 18.1074 26.2095 18.1074 24.8976C18.1074 23.5857 19.1027 22.5175 20.3542 22.5175C21.6155 22.5175 22.6206 23.5951 22.6009 24.8976C22.6009 26.2095 21.6056 27.2778 20.3542 27.2778ZM28.6612 27.2778C27.4294 27.2778 26.4145 26.2095 26.4145 24.8976C26.4145 23.5857 27.4097 22.5175 28.6612 22.5175C29.9225 22.5175 30.9276 23.5951 30.9079 24.8976C30.9079 26.2095 29.9225 27.2778 28.6612 27.2778Z" fill="#F8F9FA"/>
</svg>
