<svg width="18" height="18" viewBox="0 0 18 18" fill="none" xmlns="http://www.w3.org/2000/svg">
<g clip-path="url(#clip0_114_187)">
<path d="M1.6875 3.375H16.3125C16.3125 3.375 17.4375 3.375 17.4375 4.5V13.5C17.4375 13.5 17.4375 14.625 16.3125 14.625H1.6875C1.6875 14.625 0.5625 14.625 0.5625 13.5V4.5C0.5625 4.5 0.5625 3.375 1.6875 3.375Z" stroke="#495057" stroke-width="1.5" stroke-linecap="round" stroke-linejoin="round"/>
<path d="M11.7653 7.4812L14.625 10.125L11.7653 7.4812Z" fill="#495057"/>
<path d="M11.7653 7.4812L14.625 10.125" stroke="#495057" stroke-width="1.5" stroke-linecap="round" stroke-linejoin="round"/>
<path d="M6.23475 7.4812L3.375 10.125" stroke="#495057" stroke-width="1.5" stroke-linecap="round" stroke-linejoin="round"/>
<path d="M17.16 3.7605L10.0252 8.6805C9.72381 8.88859 9.36623 9.00005 8.99997 9.00005C8.63371 9.00005 8.27612 8.88859 7.97472 8.6805L0.839966 3.7605" stroke="#495057" stroke-width="1.5" stroke-linecap="round" stroke-linejoin="round"/>
</g>
<defs>
<clipPath id="clip0_114_187">
<rect width="18" height="18" fill="white"/>
</clipPath>
</defs>
</svg>
