<svg width="18" height="18" viewBox="0 0 18 18" fill="none" xmlns="http://www.w3.org/2000/svg">
<g clip-path="url(#clip0_114_280)">
<path d="M2.08496 15.75L16.1475 2.25" stroke="#495057" stroke-width="1.5" stroke-linecap="round" stroke-linejoin="round"/>
<path d="M6.75 14.2874C7.47823 14.5147 8.23712 14.6286 9 14.6249C12.075 14.6774 15.195 12.5174 17.115 10.3949C17.3221 10.1671 17.4369 9.87029 17.4369 9.56241C17.4369 9.25453 17.3221 8.95771 17.115 8.72991C16.4207 7.96256 15.6491 7.26889 14.8125 6.65991" stroke="#495057" stroke-width="1.5" stroke-linecap="round" stroke-linejoin="round"/>
<path d="M12.8175 5.45248C11.6372 4.84017 10.3296 4.51389 9 4.49998C6 4.44748 2.85 6.56248 0.884996 8.72998C0.677877 8.95778 0.56311 9.2546 0.56311 9.56248C0.56311 9.87036 0.677877 10.1672 0.884996 10.395C1.94991 11.5855 3.19813 12.5982 4.5825 13.395" stroke="#495057" stroke-width="1.5" stroke-linecap="round" stroke-linejoin="round"/>
<path d="M6.74994 11.3025C6.34308 10.7381 6.15372 10.0457 6.21669 9.35275C6.27965 8.65982 6.59072 8.01292 7.09265 7.53106C7.59459 7.0492 8.25364 6.76479 8.94857 6.73015C9.6435 6.6955 10.3276 6.91296 10.8749 7.3425" stroke="#495057" stroke-width="1.5" stroke-linecap="round" stroke-linejoin="round"/>
<path d="M11.8125 9.5625C11.8125 9.93184 11.7398 10.2976 11.5984 10.6388C11.4571 10.98 11.2499 11.2901 10.9887 11.5512C10.7276 11.8124 10.4175 12.0196 10.0763 12.1609C9.73507 12.3023 9.36934 12.375 9 12.375" stroke="#495057" stroke-width="1.5" stroke-linecap="round" stroke-linejoin="round"/>
</g>
<defs>
<clipPath id="clip0_114_280">
<rect width="18" height="18" fill="white"/>
</clipPath>
</defs>
</svg>
