<svg width="48" height="48" viewBox="0 0 48 48" fill="none" xmlns="http://www.w3.org/2000/svg">
<path d="M0 24C0 10.7452 10.7452 0 24 0C37.2548 0 48 10.7452 48 24C48 37.2548 37.2548 48 24 48C10.7452 48 0 37.2548 0 24Z" fill="#EA4335"/>
<path d="M24 17.6214C25.9529 17.6214 27.2702 18.465 28.0214 19.1699L30.9565 16.3041C29.1538 14.6285 26.808 13.6001 24 13.6001C19.9325 13.6001 16.4196 15.9343 14.7094 19.3317L18.072 21.9432C18.9156 19.4357 21.2498 17.6214 24 17.6214Z" fill="white"/>
<path d="M33.984 24.2312C33.984 23.3761 33.9147 22.7521 33.7644 22.105H24V25.9645H29.7316C29.616 26.9236 28.992 28.3681 27.6053 29.3388L30.8871 31.881C32.8516 30.0668 33.984 27.3974 33.984 24.2312Z" fill="white"/>
<path d="M18.0835 26.0569C17.864 25.4098 17.7369 24.7164 17.7369 24C17.7369 23.2835 17.864 22.5902 18.072 21.9431L14.7093 19.3315C14.0044 20.7413 13.6 22.3244 13.6 24C13.6 25.6755 14.0044 27.2587 14.7093 28.6684L18.0835 26.0569Z" fill="white"/>
<path d="M23.9999 34.4C26.8079 34.4 29.1653 33.4756 30.887 31.8809L27.6053 29.3387C26.727 29.9511 25.5484 30.3787 23.9999 30.3787C21.2497 30.3787 18.9155 28.5644 18.0835 26.0569L14.7208 28.6684C16.431 32.0658 19.9324 34.4 23.9999 34.4Z" fill="white"/>
</svg>
